<svg xmlns="http://www.w3.org/2000/svg" viewBox="0 0 374.88 374.88" width="512" height="512"><path d="M357.44 66.24H17.28a17.28 17.28 0 0 0-14 7.2l14.08 8.8L187.44 188.4l170-106.16 14-8.8a17.28 17.28 0 0 0-14-7.2z" data-original="#000000" class="active-path" data-old_color="#000000" fill="#FCFBFB"/><path d="M358.88 289.12L225.28 183.6l-33.6 21.04a8.002 8.002 0 0 1-8.48 0l-33.6-21.04L16 289.12l-13.6 10.8a17.279 17.279 0 0 0 14.96 8.72H357.6a17.28 17.28 0 0 0 14.96-8.72l-13.68-10.8zM16 100.16L0 90.24v191.2l16-12.64 119.12-94.24zm342.88 0l-119.12 74.4 119.12 94.24 16 12.64V90.24z" data-original="#000000" class="active-path" data-old_color="#000000" fill="#FCFBFB"/></svg>