<?xml version="1.0"?>
<svg xmlns="http://www.w3.org/2000/svg" xmlns:xlink="http://www.w3.org/1999/xlink" version="1.1" id="Layer_1" x="0px" y="0px" viewBox="0 0 512 512" style="enable-background:new 0 0 512 512;" xml:space="preserve" width="512px" height="512px" class=""><g><g>
	<path style="fill:#131E86" d="M260.718,234.369c74.741,0,135.948,57.332,140.833,129.561h38.317   c-4.934-92.67-83.398-166.579-179.15-166.579S86.502,271.26,81.568,363.93h38.317C124.77,291.7,185.976,234.369,260.718,234.369z" data-original="#EAEAEA" class="active-path" data-old_color="#EAEAEA"/>
	<path style="fill:#131E86" d="M103.303,410.202c-15.31,0-27.763,12.454-27.763,27.763s12.454,27.763,27.763,27.763   s27.763-12.454,27.763-27.763S118.612,410.202,103.303,410.202z" data-original="#EAEAEA" class="active-path" data-old_color="#EAEAEA"/>
</g><g>
	<path style="fill:#FFFFFF" d="M383.157,363.93c-1.893-24.285-11.254-46.513-25.726-64.649l-29.313,29.313l-13.086-13.086   l29.444-29.444l11.636,11.636c-20.723-25.086-51.449-41.855-86.231-44.388v36.584h-18.509v-36.576   c-30.393,2.256-57.665,15.391-77.884,35.438l26.75,26.75l-13.086,13.086l-25.857-25.857   c-12.936,17.474-21.244,38.441-23.018,61.193H383.157z" data-original="#5ECC66" class="" data-old_color="#5ECC66"/>
	<path style="fill:#FFFFFF" d="M473.478,56.385c10.203,0,18.509-8.305,18.509-18.509s-8.305-18.509-18.509-18.509   c-10.203,0-18.509,8.305-18.509,18.509S463.274,56.385,473.478,56.385z" data-original="#5ECC66" class="" data-old_color="#5ECC66"/>
	<path style="fill:#FFFFFF" d="M66.285,40.027c0-10.203-8.305-18.509-18.509-18.509s-18.509,8.305-18.509,18.509   s8.305,18.509,18.509,18.509S66.285,50.23,66.285,40.027z" data-original="#5ECC66" class="" data-old_color="#5ECC66"/>
</g><path style="fill:#131E86" d="M397.481,410.202c-15.698,0-28.468,12.454-28.468,27.763s12.77,27.763,28.468,27.763  c15.698,0,28.477-12.454,28.477-27.763S413.18,410.202,397.481,410.202z" data-original="#EAEAEA" class="active-path" data-old_color="#EAEAEA"/><path style="fill:#FFFFFF" d="M454.878,382.439h-52.851h-282.62H62.815h-5.694c-20.461,0-37.108,16.584-37.108,36.972v37.108  c0,20.389,16.647,36.972,37.108,36.972h397.757c20.461,0,37.108-16.584,37.108-36.972v-37.108  C491.986,399.023,475.339,382.439,454.878,382.439z M103.303,484.237c-25.513,0-46.272-20.759-46.272-46.272  s20.759-46.272,46.272-46.272s46.272,20.759,46.272,46.272S128.815,484.237,103.303,484.237z M397.481,484.237  c-25.901,0-46.977-20.759-46.977-46.272s21.075-46.272,46.977-46.272c25.91,0,46.986,20.759,46.986,46.272  S423.392,484.237,397.481,484.237z" data-original="#E4AD40" class="" data-old_color="#E4AD40"/><g>
	<path style="fill:#314E55;" d="M458.151,364.095c-3.269-68.909-43.064-128.531-100.949-160.431l98.083-133.747   c5.396,3.076,11.548,4.976,18.192,4.976c20.416,0,37.017-16.602,37.017-37.017S493.893,0.858,473.478,0.858   S436.46,17.46,436.46,37.876c0,6.981,2.055,13.444,5.427,19.022L340.322,195.392c-24.386-10.571-51.28-16.55-79.604-16.55   c-28.839,0-56.176,6.231-80.909,17.168L79.367,59.049c3.371-5.578,5.427-12.041,5.427-19.022c0-20.416-16.602-37.017-37.017-37.017   S10.759,19.611,10.759,40.027s16.602,37.017,37.017,37.017c6.644,0,12.796-1.899,18.192-4.976l97.041,132.326   c-57.165,32.041-96.416,91.193-99.718,159.535h-6.171c-30.664,0-55.617,24.889-55.617,55.481v37.108   C1.505,487.111,26.457,512,57.121,512h397.757c30.664,0,55.617-24.889,55.617-55.481v-37.108   C510.495,389.921,487.289,365.8,458.151,364.095z M473.478,19.367c10.203,0,18.509,8.305,18.509,18.509   s-8.305,18.509-18.509,18.509c-10.203,0-18.509-8.305-18.509-18.509S463.274,19.367,473.478,19.367z M29.268,40.027   c0-10.203,8.305-18.509,18.509-18.509s18.509,8.305,18.509,18.509S57.98,58.536,47.777,58.536S29.268,50.23,29.268,40.027z    M260.718,197.351c95.752,0,174.215,73.908,179.15,166.579H401.55c-4.885-72.23-66.092-129.561-140.833-129.561   S124.77,291.7,119.885,363.93H81.568C86.502,271.26,164.965,197.351,260.718,197.351z M161.296,302.737l25.857,25.857   l13.086-13.086l-26.75-26.75c20.219-20.047,47.491-33.182,77.884-35.438v36.576h18.509v-36.584   c34.782,2.533,65.508,19.302,86.231,44.388l-11.636-11.636l-29.444,29.444l13.086,13.086l29.313-29.313   c14.471,18.136,23.833,40.364,25.726,64.649H138.278C140.051,341.178,148.36,320.211,161.296,302.737z M491.986,456.519   c0,20.389-16.647,36.972-37.108,36.972H57.121c-20.461,0-37.108-16.584-37.108-36.972v-37.108   c0-20.389,16.647-36.972,37.108-36.972h5.694h56.593h282.62h52.851c20.461,0,37.108,16.584,37.108,36.972V456.519z" data-original="#314E55" class=""/>
	<path style="fill:#314E55;" d="M397.481,391.693c-25.901,0-46.977,20.759-46.977,46.272s21.075,46.272,46.977,46.272   c25.91,0,46.986-20.759,46.986-46.272S423.392,391.693,397.481,391.693z M397.481,465.728c-15.698,0-28.468-12.454-28.468-27.763   s12.77-27.763,28.468-27.763c15.698,0,28.477,12.454,28.477,27.763S413.18,465.728,397.481,465.728z" data-original="#314E55" class=""/>
	<path style="fill:#314E55;" d="M103.303,391.693c-25.513,0-46.272,20.759-46.272,46.272s20.759,46.272,46.272,46.272   s46.272-20.759,46.272-46.272S128.815,391.693,103.303,391.693z M103.303,465.728c-15.31,0-27.763-12.454-27.763-27.763   s12.454-27.763,27.763-27.763s27.763,12.454,27.763,27.763S118.612,465.728,103.303,465.728z" data-original="#314E55" class=""/>
	<polygon style="fill:#314E55;" points="180.582,26.462 252.801,151.821 302.353,50.185 356.054,115.824 414.21,57.008    401.051,43.994 357.355,88.188 298.377,16.096 251.445,112.381 186.692,0 103.023,56.484 113.38,71.83  " data-original="#314E55" class=""/>
</g></g> </svg>
