<?xml version="1.0"?>
<svg xmlns="http://www.w3.org/2000/svg" height="512px" viewBox="0 -24 512 512" width="512px" class=""><g><g fill="#ffcb7c"><path d="m172.984375 312.175781c-22.578125 0-45.050781 0-67.542969 0-7.402344 0-13.40625 6-13.40625 13.40625v54.113281c2.972656 0 5.839844-1.085937 8.066406-3.054687zm0 0" data-original="#FFCB7C" class="active-path" data-old_color="#FFCB7C" style="fill:#FFFFFF"/><path d="m249.320312 244.652344h-67.445312c-7.40625 0-13.40625 6-13.40625 13.40625v54.113281h4.515625zm0 0" data-original="#FFCB7C" class="active-path" data-old_color="#FFCB7C" style="fill:#FFFFFF"/><path d="m325.65625 177.128906c-22.503906 0-44.890625 0-67.351562 0-7.402344 0-13.40625 6.003906-13.40625 13.40625v54.117188h4.421874zm0 0" data-original="#FFCB7C" class="active-path" data-old_color="#FFCB7C" style="fill:#FFFFFF"/><path d="m401.992188 109.609375h-67.253907c-7.402343 0-13.40625 6-13.40625 13.402344v54.117187h4.324219zm0 0" data-original="#FFCB7C" class="active-path" data-old_color="#FFCB7C" style="fill:#FFFFFF"/></g><path d="m480.664062 95.703125h-55.863281c-4.601562 0-9.078125 1.761719-12.765625 5.023437-38.90625 34.410157-281.914062 249.363282-311.933594 275.914063-2.226562 1.96875-5.09375 3.054687-8.066406 3.054687h-60.699218c-11.78125 0-21.335938 11.320313-21.335938 25.285157 0 13.964843 9.554688 25.28125 21.335938 25.28125h72.398437c4.597656 0 9.074219-1.761719 12.761719-5.019531l308.703125-273.058594c4.308593-3.808594 9.859375-5.914063 15.609375-5.914063h39.855468c11.78125 0 21.335938-11.320312 21.335938-25.28125 0-13.964843-9.554688-25.285156-21.335938-25.285156zm0 0" fill="#91def5" data-original="#91DEF5" class="" style="fill:#131E86" data-old_color="#91def5"/><path d="m410.855469 228.457031-29.21875-4.964843c-5.449219-.929688-10.609375 2.734374-11.535157 8.179687-.925781 5.445313 2.738282 10.609375 8.183594 11.535156l9.628906 1.636719-134.371093 118.859375c-6.859375 6.066406-2.558594 17.488281 6.628906 17.488281 7.21875 0 .871094 1.300782 140.019531-120.5l.351563 7.6875c.253906 5.558594 4.996093 9.804688 10.445312 9.53125 5.515625-.25 9.785157-4.929687 9.53125-10.445312l-1.351562-29.605469c-.214844-4.699219-3.675781-8.613281-8.3125-9.402344zm0 0" data-original="#000000" class="" style="fill:#000000" data-old_color="#000000"/><path d="m386.191406 309.832031-133.394531 117.992188-.351563-7.6875c-.25-5.515625-4.929687-9.800781-10.445312-9.53125-5.515625.25-9.785156 4.925781-9.53125 10.445312l1.351562 29.601563c.214844 4.699218 3.675782 8.613281 8.3125 9.402344 30.59375 5.152343 29.398438 5.109374 30.90625 5.109374 4.785157 0 9.015626-3.445312 9.847657-8.324218.925781-5.445313-2.738281-10.609375-8.183594-11.535156l-9.628906-1.636719 134.371093-118.855469c4.136719-3.660156 4.523438-9.980469.863282-14.117188-3.660156-4.132812-9.980469-4.523437-14.117188-.863281zm0 0" data-original="#000000" class="" style="fill:#000000" data-old_color="#000000"/><path d="m480.664062 85.703125h-30.148437v-43.433594c0-36.480469-43.050781-55.457031-70.085937-31.820312l-332.609376 290.78125c-8.53125 7.457031-13.421874 18.230469-13.421874 29.5625v38.902343h-3.0625c-17.277344.003907-31.335938 15.832032-31.335938 35.285157 0 19.457031 14.058594 35.28125 31.335938 35.28125h72.398437c7.011719 0 13.894531-2.671875 19.386719-7.53125l47.542968-42.050781c4.136719-3.65625 4.523438-9.976563.863282-14.113282-3.65625-4.136718-9.976563-4.523437-14.117188-.867187-49.113281 42.480469-47.894531 44.5625-53.675781 44.5625h-72.398437c-6.144532 0-11.335938-6.996094-11.335938-15.28125 0-8.285157 5.191406-15.28125 11.335938-15.28125h60.699218c5.417969 0 10.632813-1.976563 14.691406-5.566407l311.933594-275.917968c5.101563-4.511719 5.089844-1.6875 62.003906-2.511719 6.144532 0 11.335938 7 11.335938 15.28125 0 8.285156-5.191406 15.285156-11.335938 15.285156h-39.855468c-8.195313 0-16.09375 2.988281-22.234375 8.421875l-201.390625 178.140625c-4.136719 3.660157-4.527344 9.980469-.867188 14.113281 3.660156 4.136719 9.980469 4.523438 14.117188.867188l201.390625-178.140625c2.480469-2.191406 5.671875-3.402344 8.984375-3.402344h39.855468c17.277344 0 31.335938-15.828125 31.335938-35.28125 0-19.457031-14.058594-35.285156-31.335938-35.285156zm-378.628906 275.875v-35.996094c0-1.878906 1.527344-3.40625 3.40625-3.40625h41.144532zm76.433594-67.605469v-35.914062c0-1.878906 1.527344-3.40625 3.40625-3.40625h41.046875zm76.429688-67.605468v-35.832032c0-1.875 1.527343-3.40625 3.40625-3.40625h40.953124zm76.433593-67.609376v-35.746093c0-1.878907 1.527344-3.40625 3.40625-3.40625h40.855469zm74.078125-65.523437-7.203125 6.371094h-63.46875c-12.90625 0-23.40625 10.5-23.40625 23.40625v44.117187h-53.027343c-12.90625 0-23.40625 10.5-23.40625 23.40625v44.117188h-53.023438c-12.90625 0-23.40625 10.5-23.40625 23.402344v44.117187h-53.023438c-12.90625 0-23.40625 10.5-23.40625 23.40625v44.117187h-27.640624v-38.902343c0-5.5625 2.398437-10.847657 6.585937-14.507813l332.609375-290.78125c14.238281-12.449218 36.921875-2.457031 36.921875 16.765625v43.433594c-2.824219.386719-14.203125-2.109375-25.105469 7.53125zm0 0" data-original="#000000" class="" style="fill:#000000" data-old_color="#000000"/><path d="m193.554688 347.082031c-5.523438 0-10 4.476563-10 10 0 5.519531 4.476562 10 10 10h.023437c5.523437 0 9.988281-4.480469 9.988281-10 0-5.523437-4.488281-10-10.011718-10zm0 0" data-original="#000000" class="" style="fill:#000000" data-old_color="#000000"/></g> </svg>
