<?xml version="1.0"?>
<svg xmlns="http://www.w3.org/2000/svg" height="512px" version="1.1" viewBox="-8 1 587 587.51727" width="512px" class=""><g><g id="surface1">
<path d="M 374.515625 53.625 C 531.039062 111.910156 523.570312 281.46875 523.570312 281.46875 C 523.570312 281.46875 557.851562 305.3125 557.851562 342.5625 L 10.863281 342.5625 C 10.863281 305.472656 45.148438 281.46875 45.148438 281.46875 C 45.148438 281.46875 37.730469 111.910156 194.199219 53.625 C 194.199219 53.625 374.515625 53.625 374.515625 53.625 Z M 374.515625 53.625 " style="fill:#FFFFFF" data-original="#FAB101" class="" data-old_color="#FAB101"/>
<path d="M 208.507812 10.597656 L 360.210938 10.597656 C 366.0625 10.597656 370.808594 15.339844 370.808594 21.195312 L 370.808594 172.898438 C 370.808594 178.753906 366.066406 183.496094 360.210938 183.496094 L 208.507812 183.496094 C 202.652344 183.496094 197.910156 178.753906 197.910156 172.898438 L 197.910156 21.195312 C 197.910156 15.339844 202.652344 10.597656 208.507812 10.597656 Z M 208.507812 10.597656 " style="fill:#FDFDFD" data-original="#E6EC1D" class="" data-old_color="#E6EC1D"/>
<path d="M 10.863281 457.757812 L 61.679688 457.757812 L 61.679688 518.851562 L 10.863281 518.851562 Z M 10.863281 457.757812 " style="fill:#FDFDFD" data-original="#E6EC1D" class="" data-old_color="#E6EC1D"/>
<path d="M 288.515625 474.183594 L 359.519531 574.011719 C 359.519531 574.011719 513.183594 600.824219 513.183594 502.214844 C 513.183594 412.769531 474.449219 405.566406 474.449219 405.566406 L 98.824219 405.566406 C 98.824219 405.566406 60.089844 412.769531 60.089844 502.214844 C 60.089844 600.824219 213.753906 574.011719 213.753906 574.011719 L 284.382812 474.183594 C 284.382812 474.183594 288.515625 474.183594 288.515625 474.183594 Z M 288.515625 474.183594 " style="fill:#131E86" data-original="#44AFC9" class="" data-old_color="#44AFC9"/>
<path d="M 512.8125 457.757812 L 559.972656 457.757812 L 559.972656 518.851562 L 512.8125 518.851562 Z M 512.8125 457.757812 " style="fill:#FDFDFD" data-original="#E6EC1D" class="" data-old_color="#E6EC1D"/>
<path d="M 10.863281 353.585938 L 557.90625 353.585938 C 563.761719 353.585938 568.503906 348.84375 568.503906 342.984375 C 568.503906 309.019531 544.554688 285.335938 534.21875 276.699219 C 533.742188 246.175781 523.621094 100.144531 381.457031 45.144531 L 381.457031 21.195312 C 381.457031 9.488281 371.96875 0 360.261719 0 L 208.507812 0 C 196.800781 0 187.3125 9.488281 187.3125 21.195312 L 187.3125 45.144531 C 44.988281 100.199219 35.027344 246.230469 34.550781 276.699219 C 24.269531 285.335938 0.265625 309.023438 0.265625 342.988281 C 0.265625 348.84375 5.007812 353.585938 10.863281 353.585938 Z M 208.507812 21.195312 L 273.785156 21.195312 L 273.785156 137.289062 C 273.785156 143.144531 278.527344 147.886719 284.382812 147.886719 C 290.238281 147.886719 294.984375 143.144531 294.984375 137.289062 L 294.984375 21.195312 L 360.210938 21.195312 L 360.210938 172.898438 L 208.507812 172.898438 Z M 48.804688 292.488281 L 284.382812 292.488281 C 290.238281 292.488281 294.984375 287.746094 294.984375 281.890625 C 294.984375 276.035156 290.242188 271.292969 284.382812 271.292969 L 55.796875 271.292969 C 56.910156 235.792969 69.679688 118.160156 187.363281 68.035156 L 187.363281 172.898438 C 187.363281 184.601562 196.855469 194.089844 208.558594 194.089844 L 360.210938 194.089844 C 371.914062 194.089844 381.402344 184.601562 381.402344 172.898438 L 381.402344 68.035156 C 517.738281 126.109375 513.183594 274.953125 513.183594 281.46875 C 513.027344 285.105469 514.746094 288.5625 517.738281 290.636719 C 517.738281 290.636719 540.949219 307.0625 546.351562 332.441406 L 22.628906 332.441406 C 26.871094 316.671875 36.039062 302.675781 48.804688 292.488281 Z M 48.804688 292.488281 " style="fill:#000000" data-original="#2B211A" class="active-path" data-old_color="#2B211A"/>
<path d="M 458.078125 271.296875 L 343.304688 271.296875 C 337.453125 271.296875 332.707031 276.039062 332.707031 281.894531 C 332.707031 287.75 337.449219 292.492188 343.304688 292.492188 L 458.078125 292.492188 C 463.929688 292.492188 468.675781 287.75 468.675781 281.894531 C 468.675781 276.039062 463.929688 271.296875 458.078125 271.296875 Z M 458.078125 271.296875 " style="fill:#000000" data-original="#2B211A" class="active-path" data-old_color="#2B211A"/>
<path d="M 559.972656 447.160156 L 517.15625 447.160156 C 505.128906 402.226562 479.695312 395.867188 475.988281 395.179688 C 475.335938 395.121094 474.675781 395.121094 474.027344 395.179688 L 98.824219 395.179688 C 98.171875 395.121094 97.515625 395.121094 96.863281 395.179688 C 93.152344 395.867188 67.71875 402.226562 55.691406 447.160156 L 10.863281 447.160156 C 5.011719 447.160156 0.265625 451.902344 0.265625 457.757812 L 0.265625 518.851562 C 0.265625 524.707031 5.007812 529.449219 10.863281 529.449219 L 53.625 529.449219 C 57.742188 542.109375 65.367188 553.332031 75.617188 561.824219 C 121.449219 600.347656 211.632812 585.140625 215.449219 584.449219 C 218.203125 583.980469 220.664062 582.4375 222.285156 580.160156 L 286.453125 489.605469 L 350.671875 580.160156 C 352.292969 582.4375 354.753906 583.980469 357.507812 584.449219 C 372.523438 586.835938 387.710938 588.023438 402.917969 588 C 433.28125 588 471.804688 583.125 497.34375 561.824219 C 507.589844 553.332031 515.214844 542.109375 519.332031 529.449219 L 560.082031 529.449219 C 565.933594 529.449219 570.679688 524.707031 570.679688 518.851562 L 570.679688 457.757812 C 570.679688 451.902344 565.9375 447.160156 560.082031 447.160156 C 560.039062 447.160156 560.007812 447.160156 559.972656 447.160156 Z M 49.757812 508.253906 L 21.460938 508.253906 L 21.460938 468.355469 L 51.558594 468.355469 C 50.101562 479.582031 49.390625 490.890625 49.4375 502.214844 C 49.4375 504.28125 49.597656 506.292969 49.757812 508.253906 Z M 483.722656 545.34375 C 450.445312 573.375 383.046875 566.539062 365.347656 563.941406 L 297.152344 468.035156 C 294.765625 464.660156 290.625 462.980469 286.554688 463.746094 C 282.488281 462.980469 278.347656 464.660156 275.957031 468.035156 L 207.550781 564.207031 C 190.015625 566.59375 122.507812 573.585938 89.179688 545.609375 C 76.558594 534.859375 69.695312 518.820312 70.632812 502.265625 C 70.632812 430.574219 96.332031 417.488281 100.253906 416.214844 L 472.488281 416.214844 C 477.046875 418.015625 502.214844 431.316406 502.214844 502.265625 C 503.152344 518.820312 496.292969 534.859375 483.667969 545.609375 Z M 549.425781 508.253906 L 522.933594 508.253906 C 522.933594 506.292969 523.199219 504.28125 523.199219 502.265625 C 523.246094 490.941406 522.535156 479.636719 521.078125 468.40625 L 549.160156 468.40625 Z M 549.425781 508.253906 " style="fill:#000000" data-original="#2B211A" class="active-path" data-old_color="#2B211A"/>
</g></g> </svg>
